<?xml version="1.0" encoding="UTF-8" standalone="no"?>
<!-- Created with Inkscape (http://www.inkscape.org/) -->

<svg
   xmlns:dc="http://purl.org/dc/elements/1.1/"
   xmlns:cc="http://creativecommons.org/ns#"
   xmlns:rdf="http://www.w3.org/1999/02/22-rdf-syntax-ns#"
   xmlns:svg="http://www.w3.org/2000/svg"
   xmlns="http://www.w3.org/2000/svg"
   xmlns:sodipodi="http://sodipodi.sourceforge.net/DTD/sodipodi-0.dtd"
   xmlns:inkscape="http://www.inkscape.org/namespaces/inkscape"
   width="58.217064mm"
   height="58.195961mm"
   viewBox="0 0 58.217064 58.195961"
   version="1.1"
   id="svg8"
   inkscape:version="0.92.5 (2060ec1f9f, 2020-04-08)"
   sodipodi:docname="blue_yekola.svg">
  <defs
     id="defs2" />
  <sodipodi:namedview
     id="base"
     pagecolor="#ffffff"
     bordercolor="#666666"
     borderopacity="1.0"
     inkscape:pageopacity="0.0"
     inkscape:pageshadow="2"
     inkscape:zoom="0.98994949"
     inkscape:cx="-91.306336"
     inkscape:cy="19.183037"
     inkscape:document-units="mm"
     inkscape:current-layer="layer1"
     showgrid="false"
     fit-margin-top="0"
     fit-margin-left="0"
     fit-margin-right="0"
     fit-margin-bottom="0"
     inkscape:window-width="1600"
     inkscape:window-height="837"
     inkscape:window-x="-8"
     inkscape:window-y="-8"
     inkscape:window-maximized="1" />
  <metadata
     id="metadata5">
    <rdf:RDF>
      <cc:Work
         rdf:about="">
        <dc:format>image/svg+xml</dc:format>
        <dc:type
           rdf:resource="http://purl.org/dc/dcmitype/StillImage" />
        <dc:title></dc:title>
      </cc:Work>
    </rdf:RDF>
  </metadata>
  <g
     inkscape:label="Calque 1"
     inkscape:groupmode="layer"
     id="layer1"
     transform="translate(-63.446389,-117.87588)">
    <g
       id="layer1-6"
       inkscape:label="Calque 1"
       transform="matrix(0.35962919,0,0,0.35962919,57.479073,94.544381)"
       style="fill:#3b7cf4;fill-opacity:1">
      <g
         transform="matrix(11.850314,0,0,11.850314,410.88901,-1617.6746)"
         id="g4685"
         style="fill:#3b7cf4;fill-opacity:1" />
      <g
         style="fill:#3b7cf4;fill-opacity:1"
         id="g4752">
        <g
           transform="matrix(11.850314,0,0,11.850314,410.889,-1617.6746)"
           style="fill:#3b7cf4;fill-opacity:1"
           id="g4732" />
        <g
           style="fill:#3b7cf4;fill-opacity:1"
           id="g4697"
           transform="matrix(10.411053,5.6603815,-5.6603815,10.411053,1299.0092,-1301.5033)">
          <path
             inkscape:export-ydpi="96"
             inkscape:export-xdpi="96"
             inkscape:export-filename="C:\Users\bIT\Desktop\path4695.png"
             d="m -110.53906,572.07812 a 8.0985167,5.0686194 33.706557 0 0 -1.56446,0.19141 8.0985167,5.0686194 33.706557 0 0 -0.43945,0.13281 5.09397,8.2770104 17.599487 0 0 -0.26367,0.10547 8.0985167,5.0686194 33.706557 0 0 -0.15625,0.0703 5.09397,8.2770104 17.599487 0 0 -4.85742,6.73438 5.09397,8.2770104 17.599487 0 0 2.94531,8.88086 5.09397,8.2770104 17.599487 0 0 6.27539,-4.73633 8.0985167,5.0686194 33.706557 0 0 7.55469,-0.47461 8.0985167,5.0686194 33.706557 0 0 -3.33594,-8.67773 8.0985167,5.0686194 33.706557 0 0 -6.1582,-2.22657 z m 11.880722,-1.89315 a 3.3627979,4.7417588 21.453829 0 1 -4.662622,3.83449 3.3627979,4.7417588 21.453829 0 1 -1.96644,-5.2226 3.3627979,4.7417588 21.453829 0 1 4.66261,-3.83445 3.3627979,4.7417588 21.453829 0 1 1.966452,5.22256 z m -21.490832,1.79508 a 4.7368701,3.0157221 46.338894 0 1 1.88008,5.64688 4.7368701,3.0157221 46.338894 0 1 -5.23206,-0.51838 4.7368701,3.0157221 46.338894 0 1 -1.88008,-5.64688 4.7368701,3.0157221 46.338894 0 1 5.23206,0.51838 z m 5.4142,-7.60854 a 5.1529382,3.2977884 66.867892 0 1 -0.79186,6.17546 5.1529382,3.2977884 66.867892 0 1 -5.09537,-3.18279 5.1529382,3.2977884 66.867892 0 1 0.79185,-6.17546 5.1529382,3.2977884 66.867892 0 1 5.09538,3.18279 z m 8.66354,-0.55723 a 3.3928572,5.4910712 0 0 1 -3.39285,5.49105 3.3928572,5.4910712 0 0 1 -3.39286,-5.49105 3.3928572,5.4910712 0 0 1 3.39286,-5.49109 3.3928572,5.4910712 0 0 1 3.39285,5.49109 z m -14.80571,38.28984 a 8.0985167,5.0686194 5.1740903 0 0 -1.28303,0.91544 8.0985167,5.0686194 5.1740903 0 0 -0.32264,0.32659 8.2770104,5.09397 79.06702 0 0 -0.18126,0.2186 8.0985167,5.0686194 5.1740903 0 0 -0.1037,0.1364 8.2770104,5.09397 79.06702 0 0 -1.05075,8.23664 8.2770104,5.09397 79.06702 0 0 6.8296,6.3954 8.2770104,5.09397 79.06702 0 0 3.25088,-7.15856 8.0985167,5.0686194 5.1740903 0 0 6.41045,-4.02552 8.0985167,5.0686194 5.1740903 0 0 -7.07576,-6.03036 8.0985167,5.0686194 5.1740903 0 0 -6.4738,0.98536 z m 9.53349,-7.33813 a 4.7417588,3.3627978 82.921362 0 1 -2.26476,5.59591 4.7417588,3.3627978 82.921362 0 1 -4.22222,-3.649 4.7417588,3.3627978 82.921362 0 1 2.26477,-5.59588 4.7417588,3.3627978 82.921362 0 1 4.22221,3.64897 z m -18.02327,11.84231 a 4.73687,3.0157221 17.806428 0 1 4.34901,4.06301 4.73687,3.0157221 17.806428 0 1 -4.84422,2.04371 4.73687,3.0157221 17.806428 0 1 -4.349,-4.06301 4.73687,3.0157221 17.806428 0 1 4.84421,-2.04371 z m 1.12236,-9.27059 a 5.1529382,3.2977884 38.335426 0 1 2.25407,5.80366 5.1529382,3.2977884 38.335426 0 1 -5.99681,-0.36239 5.1529382,3.2977884 38.335426 0 1 -2.25407,-5.80366 5.1529382,3.2977884 38.335426 0 1 5.99681,0.36239 z m 7.34516,-4.62775 a 5.4910712,3.3928572 61.467533 0 1 -0.35794,6.44476 5.4910712,3.3928572 61.467533 0 1 -5.60363,-3.20352 5.4910712,3.3928572 61.467533 0 1 0.35794,-6.44479 5.4910712,3.3928572 61.467533 0 1 5.60363,3.20355 z"
             style="opacity:1;fill:#3b7cf4;fill-opacity:1;stroke:none;stroke-width:1.6444931"
             transform="scale(0.26458333)"
             id="path4695"
             inkscape:connector-curvature="0" />
        </g>
      </g>
    </g>
  </g>
</svg>
